<svg xmlns="http://www.w3.org/2000/svg" width="228" height="228" viewBox="0 0 228 228" fill="none">
  <path fill-rule="evenodd" clip-rule="evenodd" d="M113.997 33.2383C69.4706 33.2383 33.2471 69.4618 33.2471 113.988C33.2471 158.515 69.4706 194.738 113.997 194.738C158.524 194.738 194.747 158.515 194.747 113.988C194.747 69.4618 158.524 33.2383 113.997 33.2383ZM113.997 208.988C61.6141 208.988 18.9971 166.371 18.9971 113.988C18.9971 61.6053 61.6141 18.9883 113.997 18.9883C166.38 18.9883 208.997 61.6053 208.997 113.988C208.997 166.371 166.38 208.988 113.997 208.988Z" fill="#D7F4D8"/>
  <path fill-rule="evenodd" clip-rule="evenodd" d="M105.673 144.823C103.858 144.823 102.025 144.129 100.638 142.733L78.0847 120.189C75.3012 117.406 75.3012 112.903 78.0847 110.119C80.8682 107.336 85.3712 107.336 88.1547 110.119L105.673 127.618L145.725 87.5759C148.508 84.7924 153.011 84.7924 155.795 87.5759C158.578 90.3594 158.578 94.8624 155.795 97.6459L110.708 142.733C109.321 144.129 107.497 144.823 105.673 144.823Z" fill="#D7F4D8"/>
</svg>